<svg width="1552" height="886" viewBox="0 0 1552 886" fill="none" xmlns="http://www.w3.org/2000/svg">
<path d="M579.648 591.434V11.5066H464.638V97.8052C419.784 36.8208 353.079 0 276.023 0C118.46 0 0 123.12 0 299.169C0 475.218 118.46 598.338 276.023 598.338C353.079 598.338 419.784 561.517 464.638 500.533V591.434C464.638 701.896 402.533 780.14 296.724 780.14C207.017 780.14 144.912 723.758 129.961 637.46H13.8011C34.5028 785.893 146.062 886 296.724 886C454.287 886 579.648 766.332 579.648 591.434ZM289.824 492.478C189.766 492.478 115.009 415.384 115.009 299.169C115.009 182.953 189.766 105.86 289.824 105.86C389.882 105.86 464.638 182.953 464.638 299.169C464.638 415.384 389.882 492.478 289.824 492.478Z" fill="black"/>
<path d="M825.14 256.595C825.14 153.036 872.294 101.257 949.351 101.257C1026.41 101.257 1073.56 153.036 1073.56 256.595V586.831H1188.57V256.595C1188.57 153.036 1235.72 101.257 1313.93 101.257C1390.99 101.257 1436.99 153.036 1436.99 256.595V586.831H1552V233.582C1552 75.9429 1465.74 0 1349.58 0C1266.78 0 1200.07 39.1222 1166.72 113.914C1133.37 36.8209 1066.66 0 985.004 0C915.998 0 858.493 32.2183 825.14 92.052V11.5066H710.131V586.831H825.14V256.595Z" fill="black"/>
</svg>
